
<svg width="70px" height="70px" viewBox="0 0 70 70" version="1.1" xmlns="http://www.w3.org/2000/svg" xmlns:xlink="http://www.w3.org/1999/xlink">
    <defs></defs>
    <g id="Page-1" stroke="none" stroke-width="1" fill="none" fill-rule="evenodd">
        <g id="Artboard" transform="translate(-16.000000, -15.000000)" fill="#619E1A">
            <path d="M50.4512423,59.9851986 C50.6329145,59.9950238 50.8158761,60 51,60 C51.1253214,60 51.2501044,59.9976947 51.3743089,59.9931242 L52.1308634,60.9874064 C52.2773526,61.1799259 52.483221,61.3187859 52.7165978,61.3824892 C53.3026694,61.5424651 53.9074606,61.1970463 54.0674366,60.6109747 L54.0674366,60.6109747 L54.3956028,59.4087382 C54.6874666,59.3033864 54.9730223,59.1848403 55.25155,59.05382 L56.334087,59.6720973 C56.5441543,59.7920746 56.7879141,59.8394567 57.0276294,59.8069083 C57.6296188,59.7251706 58.0513661,59.1709002 57.9696283,58.5689107 L57.9696283,58.5689107 L57.801515,57.3307751 C58.154978,57.0026789 58.4846745,56.6493314 58.7877353,56.2736018 L60.034214,56.3549137 C60.2756159,56.3706611 60.5154767,56.3063906 60.7166631,56.172052 C61.2218961,55.8346918 61.3579839,55.151635 61.0206237,54.646402 L60.3285583,53.6099601 C60.4396192,53.3231625 60.5378354,53.0299655 60.6225011,52.731075 L61.7991004,52.3197803 C62.027465,52.2399526 62.2231456,52.0870702 62.3558484,51.8848011 C62.6891007,51.3768491 62.5474786,50.6949183 62.0395266,50.361666 L60.9948612,49.6762918 C60.9849773,49.3655412 60.9609172,49.0583698 60.923305,48.7554022 L61.8470347,47.9158243 C62.0260543,47.7531134 62.1464433,47.5359259 62.189564,47.2978851 C62.2978517,46.7001008 61.9010363,46.1277163 61.303252,46.0194286 L61.303252,46.0194286 L60.076602,45.7972228 C59.872377,45.3569057 59.6370547,44.933946 59.373455,44.5311636 L59.8356077,43.3717282 C59.9251817,43.1470076 59.9381779,42.8990258 59.8725843,42.6661732 C59.7078613,42.081418 59.1002891,41.7409147 58.5155339,41.9056377 L57.3131631,42.2443404 C57.0746522,42.0499557 56.8270049,41.866354 56.5709644,41.6942784 L56.5433477,40.4462967 C56.5379956,40.2044409 56.4530645,39.9710945 56.3017025,39.782382 C55.9215921,39.3084744 55.2292737,39.2324368 54.7553661,39.6125472 L54.7553661,39.6125472 L53.7830911,40.3923867 C53.4882366,40.3071247 53.1877765,40.2350684 52.8823929,40.1769 L52.3697492,39.0398112 C52.270322,38.8192731 52.1009667,38.6376617 51.8879015,38.5230928 C51.3528375,38.2353796 50.6858448,38.4358969 50.3981316,38.9709608 L49.8069255,40.0704342 C49.3214598,40.1281492 48.8466633,40.2206423 48.3850975,40.3453521 L47.4264919,39.5485891 C47.2404498,39.3939567 47.0086211,39.304966 46.7668956,39.2953938 C46.1598581,39.2713554 45.6482701,39.7439695 45.6242317,40.351007 L45.5748467,41.5981188 C45.3157436,41.7657683 45.0648884,41.9450772 44.8230238,42.1353028 L43.6268768,41.7757064 C43.3952045,41.706059 43.1470336,41.7147253 42.920784,41.8003637 C42.3526105,42.0154247 42.0663563,42.6503617 42.2814173,43.2185351 L42.2814173,43.2185351 L42.7233341,44.386043 C42.5503218,44.6406195 42.3887472,44.9035965 42.2393491,45.1742352 L40.9995168,45.3104065 C40.7590479,45.3368173 40.5339916,45.4417628 40.3591893,45.6089962 C39.9202139,46.0289639 39.9048051,46.7252749 40.3247729,47.1642503 L40.3247729,47.1642503 L41.1869742,48.0654747 C41.095248,48.5334389 41.0361622,49.0130987 41.0121849,49.5019861 L39.9558428,50.1689446 C39.7512885,50.2980971 39.5950143,50.4910797 39.5112133,50.7180163 C39.3007665,51.287915 39.5921599,51.9205099 40.1620586,52.1309567 L41.3314175,52.5627664 C41.4108308,52.863162 41.5038721,53.1580182 41.6098399,53.4466334 L40.8998116,54.4708103 C40.7619823,54.6696216 40.6935354,54.9083242 40.7050674,55.1499641 C40.7340273,55.7567867 41.2494308,56.2252369 41.8562534,56.196277 L41.8562534,56.196277 L43.1038211,56.1367383 C43.2930428,56.3798612 43.4932464,56.6140151 43.7036868,56.838455 L43.4496123,58.0618606 C43.4004215,58.2987216 43.4306844,58.5451927 43.5357159,58.7631176 C43.7994781,59.3103852 44.4569476,59.5402117 45.0042152,59.2764495 L46.1278654,58.7348928 C46.5477424,58.9695933 46.9862833,59.174897 47.4407027,59.3480182 L47.7478436,60.5558244 C47.8074642,60.7902775 47.9427101,60.9985379 48.1326437,61.1483647 C48.609618,61.5246198 49.301297,61.4429709 49.6775521,60.9659966 L49.6775521,60.9659966 L50.4512423,59.9851986 Z M32,26.6573532 L32,18 L19,18 L19,31 L27.8573654,31 L38.3208183,41.4634529 L42.563459,37.2208122 L32,26.6573532 Z M74.3060997,31 L83,31 L83,18 L70,18 L70,26.8208183 L59.6000061,37.2208122 L63.8426468,41.4634529 L74.3060997,31 Z M74.3743687,69 L63.7426407,58.368272 L59.5,62.6109127 L70,73.1109127 L70,82 L83,82 L83,69 L74.3743687,69 Z M27.6890903,69 L19,69 L19,82 L32,82 L32,73.1743717 L42.563459,62.6109127 L38.3208183,58.368272 L27.6890903,69 Z M67,74.35965 L56.5715295,63.9311796 C54.8490035,64.6206968 52.9687972,65 51,65 C49.0312028,65 47.1509965,64.6206968 45.4284705,63.9311796 L35,74.35965 L35,85 L16,85 L16,66 L26.3890873,66 L36.9979633,55.391124 C36.3533625,53.718031 36,51.9002816 36,50 C36,48.0312028 36.3793032,46.1509965 37.0688204,44.4284705 L26.64035,34 L16,34 L16,15 L35,15 L35,25.3890873 L45.608876,35.9979633 C47.281969,35.3533625 49.0997184,35 51,35 C52.9002816,35 54.718031,35.3533625 56.391124,35.9979633 L67,25.3890873 L67,15 L86,15 L86,34 L75.35965,34 L64.9311796,44.4284705 C65.6206968,46.1509965 66,48.0312028 66,50 C66,51.9002816 65.6466375,53.718031 65.0020367,55.391124 L75.6109127,66 L86,66 L86,85 L67,85 L67,74.35965 Z M16,55 L21,55 L21,66 L16,66 L16,55 Z M46,80 L46,85 L35,85 L35,80 L46,80 Z M16,34 L21,34 L21,45 L16,45 L16,34 Z M46,15 L46,20 L35,20 L35,15 L46,15 Z M81,34 L86,34 L86,45 L81,45 L81,34 Z M67,15 L67,20 L56,20 L56,15 L67,15 Z M81,55 L86,55 L86,66 L81,66 L81,55 Z M67,80 L67,85 L56,85 L56,80 L67,80 Z M83,43 L83,45 L84,45 L84,43 L83,43 Z M83,55 L83,57 L84,57 L84,55 L83,55 Z M18,55 L18,57 L19,57 L19,55 L18,55 Z M18,43 L18,45 L19,45 L19,43 L18,43 Z M46,17 L44,17 L44,18 L46,18 L46,17 Z M58,17 L56,17 L56,18 L58,18 L58,17 Z M46,82 L44,82 L44,83 L46,83 L46,82 Z M58,82 L56,82 L56,83 L58,83 L58,82 Z" id="Combined-Shape"></path>
        </g>
    </g>
</svg>
